<svg width="25" height="22" viewBox="0 0 25 22" fill="none" xmlns="http://www.w3.org/2000/svg">
<path d="M17.7943 13.7593L17.033 14.5958H18.1641H18.96C19.164 14.5958 19.3432 14.6647 19.4642 14.7687L24.3304 18.9496C24.3306 18.9498 24.3309 18.95 24.3312 18.9503C24.5543 19.1448 24.5546 19.4241 24.3275 19.6192L22.9456 20.8064L22.9436 20.8081C22.6786 21.0383 22.2146 21.0406 21.942 20.8064L17.0739 16.6238C16.9557 16.5223 16.9062 16.4011 16.9062 16.2899V15.6061V14.6678L16.1274 15.191C14.4882 16.2922 12.4177 16.9519 10.1562 16.9519C4.74814 16.9519 0.5 13.2016 0.5 8.72596C0.5 4.25037 4.74814 0.5 10.1562 0.5C15.5644 0.5 19.8125 4.25037 19.8125 8.72596C19.8125 10.6152 19.067 12.3607 17.7943 13.7593ZM3.40625 8.72596C3.40625 12.041 6.50213 14.5958 10.1562 14.5958C13.8158 14.5958 16.9062 12.0364 16.9062 8.72596C16.9062 5.41089 13.8104 2.85614 10.1562 2.85614C6.49671 2.85614 3.40625 5.41555 3.40625 8.72596Z" fill="#2F2E2E" stroke="black"/>
</svg>
